<?xml version="1.0" encoding="UTF-8" standalone="no"?>
<!-- Generator: Adobe Illustrator 18.1.0, SVG Export Plug-In . SVG Version: 6.00 Build 0)  -->

<svg
   xmlns:dc="http://purl.org/dc/elements/1.1/"
   xmlns:cc="http://creativecommons.org/ns#"
   xmlns:rdf="http://www.w3.org/1999/02/22-rdf-syntax-ns#"
   xmlns:svg="http://www.w3.org/2000/svg"
   xmlns="http://www.w3.org/2000/svg"
   xmlns:sodipodi="http://sodipodi.sourceforge.net/DTD/sodipodi-0.dtd"
   xmlns:inkscape="http://www.inkscape.org/namespaces/inkscape"
   version="1.1"
   id="Layer_1"
   x="0px"
   y="0px"
   viewBox="0 0 609.5 108.1"
   enable-background="new 0 0 650.7 142"
   xml:space="preserve"
   inkscape:version="0.91 r13725"
   width="100%"
   height="100%"
   sodipodi:docname="logo-black.svg"><metadata
     id="metadata57"><rdf:RDF><cc:Work
         rdf:about=""><dc:format>image/svg+xml</dc:format><dc:type
           rdf:resource="http://purl.org/dc/dcmitype/StillImage" /></cc:Work></rdf:RDF></metadata><defs
     id="defs55" /><sodipodi:namedview
     pagecolor="#ffffff"
     bordercolor="#666666"
     borderopacity="1"
     objecttolerance="10"
     gridtolerance="10"
     guidetolerance="10"
     inkscape:pageopacity="0"
     inkscape:pageshadow="2"
     inkscape:window-width="1920"
     inkscape:window-height="1017"
     id="namedview53"
     showgrid="false"
     fit-margin-top="0"
     fit-margin-left="0"
     fit-margin-right="0"
     fit-margin-bottom="0"
     inkscape:zoom="0.76285379"
     inkscape:cx="604.51886"
     inkscape:cy="-28.86273"
     inkscape:window-x="-8"
     inkscape:window-y="-8"
     inkscape:window-maximized="1"
     inkscape:current-layer="Layer_1" /><polygon
     style="fill:#000000;fill-opacity:1"
     id="polygon5"
     points="20.8,16.7 20.8,114.8 119,114.8 119,82.1 53.5,82.1 53.5,16.7 "
     transform="translate(-20.800006,-16.6)" /><polygon
     style="fill:none"
     id="polygon7"
     points="53.5,16.7 53.5,82.1 119,82.1 119,49.4 86.3,49.4 86.3,16.7 "
     transform="translate(-20.800006,-16.6)" /><rect
     style="fill:#000000;fill-opacity:1"
     id="rect9"
     height="32.700001"
     width="32.700001"
     y="0.10000076"
     x="65.5" /><g
     id="g11"
     transform="translate(-20.800006,-16.6)"
     style="fill:#000000"><polygon
       style="fill:#000000"
       id="polygon13"
       points="221.9,34.6 221.9,16.7 211.3,16.7 211.3,65.9 221.9,65.9 221.9,48 226.5,43.4 241.1,65.9 254.8,65.9 234,35.9 253.1,16.7 238.5,16.7 " /><path
       style="fill:#000000"
       inkscape:connector-curvature="0"
       id="path15"
       d="m 188.4,46.4 c 4.9,-2.8 8.5,-7.9 8.5,-13.8 0,-8.8 -7.9,-16 -16.7,-16 l -9.8,0 -10.5,0 0,49.2 10.5,0 0,-17.1 6.6,0 11.5,17.2 13.9,0 -14,-19.5 z m -2,-13.4 c -0.2,3.5 -2.6,5.9 -6.3,6.4 l -9.8,0 0,-13 9.8,0 c 3.6,0.1 6.6,3 6.3,6.6 z" /><polygon
       style="fill:#000000"
       id="polygon17"
       points="307.6,16.7 300.1,50.8 292.9,16.7 282.4,16.7 275.5,50.8 267.7,16.7 256.5,16.7 269.8,65.9 280.5,65.9 287.6,33.3 294.8,65.9 305.4,65.9 318.7,16.7 " /></g><g
     id="g19"
     transform="translate(-20.800006,-16.6)"
     style="fill:#000000"><path
       style="fill:#000000"
       inkscape:connector-curvature="0"
       id="path21"
       d="m 165.4,78.4 0,18.2 18.5,-18.2 6.3,0 -15.4,14.7 16,21.8 -6.1,0 -13.2,-18.4 -6.1,5.7 0,12.8 -4.8,0 0,-36.6 4.8,0 z" /><path
       style="fill:#000000"
       inkscape:connector-curvature="0"
       id="path23"
       d="m 195.4,96.2 c 0.5,-1.7 1.4,-3.1 2.5,-4.4 1.1,-1.2 2.4,-2.2 4,-2.9 1.6,-0.7 3.4,-1.1 5.5,-1.1 2.1,0 4,0.4 5.5,1.1 1.6,0.7 2.9,1.7 4,2.9 1.1,1.2 1.9,2.7 2.5,4.4 0.5,1.7 0.8,3.5 0.8,5.4 0,1.9 -0.3,3.7 -0.8,5.4 -0.5,1.7 -1.4,3.1 -2.5,4.4 -1.1,1.2 -2.4,2.2 -4,2.9 -1.6,0.7 -3.4,1 -5.5,1 -2.1,0 -3.9,-0.4 -5.5,-1 -1.6,-0.7 -2.9,-1.7 -4,-2.9 -1.1,-1.2 -1.9,-2.7 -2.5,-4.4 -0.5,-1.7 -0.8,-3.5 -0.8,-5.4 -0.1,-1.9 0.2,-3.7 0.8,-5.4 z m 4.4,9.7 c 0.4,1.2 1,2.3 1.8,3.1 0.7,0.8 1.6,1.5 2.6,1.9 1,0.4 2.1,0.7 3.2,0.7 1.1,0 2.2,-0.2 3.2,-0.7 1,-0.4 1.9,-1.1 2.6,-1.9 0.8,-0.8 1.3,-1.9 1.8,-3.1 0.4,-1.2 0.6,-2.7 0.6,-4.3 0,-1.6 -0.2,-3 -0.6,-4.3 -0.4,-1.2 -1,-2.3 -1.8,-3.1 -0.8,-0.9 -1.6,-1.5 -2.6,-1.9 -1,-0.4 -2.1,-0.7 -3.2,-0.7 -1.1,0 -2.2,0.2 -3.2,0.7 -1,0.4 -1.9,1.1 -2.6,1.9 -0.8,0.9 -1.3,1.9 -1.8,3.1 -0.4,1.2 -0.6,2.7 -0.6,4.3 -0.1,1.7 0.2,3.1 0.6,4.3 z" /><path
       style="fill:#000000"
       inkscape:connector-curvature="0"
       id="path25"
       d="m 231.4,88.5 0,3.9 0.1,0 c 2,-3 4.8,-4.5 8.5,-4.5 1.6,0 3.1,0.3 4.4,1 1.3,0.7 2.3,1.8 2.8,3.5 0.9,-1.4 2.1,-2.5 3.5,-3.3 1.4,-0.8 3,-1.2 4.8,-1.2 1.3,0 2.5,0.1 3.6,0.4 1.1,0.3 2,0.7 2.8,1.4 0.8,0.6 1.4,1.4 1.8,2.4 0.4,1 0.6,2.1 0.6,3.5 l 0,19.4 -4.3,0 0,-17.5 c 0,-0.8 -0.1,-1.6 -0.2,-2.3 -0.1,-0.7 -0.4,-1.3 -0.8,-1.9 -0.4,-0.5 -0.9,-0.9 -1.6,-1.3 -0.7,-0.3 -1.5,-0.5 -2.6,-0.5 -2.1,0 -3.8,0.6 -5.1,1.8 -1.2,1.2 -1.8,2.9 -1.8,4.9 l 0,16.4 -4.3,0 0,-17.1 c 0,-0.9 -0.1,-1.6 -0.2,-2.3 -0.2,-0.7 -0.4,-1.3 -0.8,-1.9 -0.4,-0.5 -0.9,-0.9 -1.5,-1.2 -0.6,-0.3 -1.4,-0.4 -2.4,-0.4 -1.3,0 -2.3,0.3 -3.2,0.8 -0.9,0.5 -1.6,1.1 -2.2,1.8 -0.6,0.7 -1,1.5 -1.2,2.2 -0.3,0.8 -0.4,1.4 -0.4,1.9 l 0,16.4 -4.3,0 0,-26.3 4,0 z" /><path
       style="fill:#000000"
       inkscape:connector-curvature="0"
       id="path27"
       d="m 277.4,88.5 0,3.5 0.1,0 c 0.7,-1.5 1.8,-2.5 3.4,-3.2 1.5,-0.7 3.2,-1 5.1,-1 2,0 3.8,0.4 5.3,1.1 1.5,0.7 2.8,1.8 3.8,3 1,1.3 1.8,2.7 2.3,4.4 0.5,1.7 0.8,3.4 0.8,5.3 0,1.9 -0.2,3.6 -0.7,5.3 -0.5,1.7 -1.2,3.1 -2.2,4.4 -1,1.2 -2.3,2.2 -3.8,2.9 -1.5,0.7 -3.3,1.1 -5.3,1.1 -0.6,0 -1.4,-0.1 -2.2,-0.2 -0.8,-0.1 -1.6,-0.4 -2.4,-0.7 -0.8,-0.3 -1.5,-0.7 -2.2,-1.3 -0.7,-0.5 -1.3,-1.2 -1.8,-2 l -0.1,0 0,13.6 -4.3,0 0,-36.2 4.2,0 z m 15.6,9.3 c -0.3,-1.2 -0.8,-2.2 -1.5,-3.1 -0.7,-0.9 -1.5,-1.6 -2.6,-2.2 -1,-0.5 -2.3,-0.8 -3.7,-0.8 -1.5,0 -2.7,0.3 -3.7,0.9 -1,0.6 -1.9,1.3 -2.5,2.3 -0.6,0.9 -1.1,2 -1.4,3.2 -0.3,1.2 -0.4,2.4 -0.4,3.6 0,1.3 0.2,2.5 0.5,3.8 0.3,1.2 0.8,2.3 1.5,3.2 0.7,0.9 1.5,1.7 2.6,2.2 1.1,0.6 2.3,0.8 3.8,0.8 1.5,0 2.8,-0.3 3.8,-0.9 1,-0.6 1.8,-1.3 2.4,-2.3 0.6,-1 1.1,-2 1.3,-3.3 0.3,-1.2 0.4,-2.5 0.4,-3.8 0,-1.2 -0.2,-2.4 -0.5,-3.6 z" /><path
       style="fill:#000000"
       inkscape:connector-curvature="0"
       id="path29"
       d="m 323.9,113.2 c -2,1.5 -4.5,2.2 -7.5,2.2 -2.1,0 -3.9,-0.3 -5.5,-1 -1.5,-0.7 -2.8,-1.6 -3.9,-2.9 -1.1,-1.2 -1.8,-2.7 -2.4,-4.4 -0.5,-1.7 -0.8,-3.6 -0.9,-5.6 0,-2 0.3,-3.8 0.9,-5.5 0.6,-1.7 1.5,-3.1 2.6,-4.3 1.1,-1.2 2.4,-2.2 3.9,-2.9 1.5,-0.7 3.2,-1 5,-1 2.3,0 4.3,0.5 5.8,1.5 1.5,1 2.8,2.2 3.7,3.7 0.9,1.5 1.6,3.1 1.9,4.9 0.4,1.8 0.5,3.5 0.4,5.1 l -19.8,0 c 0,1.2 0.1,2.3 0.4,3.3 0.3,1 0.8,2 1.5,2.8 0.7,0.8 1.5,1.4 2.6,1.9 1.1,0.5 2.3,0.7 3.7,0.7 1.8,0 3.3,-0.4 4.5,-1.3 1.2,-0.9 1.9,-2.1 2.3,-3.9 l 4.3,0 c -0.2,2.9 -1.5,5.2 -3.5,6.7 z m -1,-17 c -0.4,-0.9 -0.9,-1.7 -1.6,-2.4 -0.7,-0.7 -1.5,-1.2 -2.4,-1.6 -0.9,-0.4 -1.9,-0.6 -3,-0.6 -1.1,0 -2.1,0.2 -3,0.6 -0.9,0.4 -1.7,0.9 -2.3,1.6 -0.6,0.7 -1.2,1.5 -1.5,2.4 -0.4,0.9 -0.6,1.9 -0.7,2.9 l 15.2,0 c -0.1,-1 -0.3,-2 -0.7,-2.9 z" /><path
       style="fill:#000000"
       inkscape:connector-curvature="0"
       id="path31"
       d="m 346,88.5 0,3.8 -5.3,0 0,16.4 c 0,0.5 0,0.9 0.1,1.2 0.1,0.3 0.2,0.5 0.5,0.7 0.2,0.2 0.6,0.3 1,0.3 0.4,0.1 1,0.1 1.7,0.1 l 2,0 0,3.8 -3.3,0 c -1.1,0 -2.1,-0.1 -2.9,-0.2 -0.8,-0.2 -1.5,-0.4 -1.9,-0.8 -0.5,-0.4 -0.9,-1 -1.1,-1.7 -0.2,-0.7 -0.4,-1.7 -0.4,-3 l 0,-16.8 -4.5,0 0,-3.8 4.5,0 0,-7.9 4.3,0 0,7.9 5.3,0 z" /><path
       style="fill:#000000"
       inkscape:connector-curvature="0"
       id="path33"
       d="m 371.5,113.2 c -2,1.5 -4.5,2.2 -7.5,2.2 -2.1,0 -3.9,-0.3 -5.5,-1 -1.6,-0.7 -2.9,-1.6 -3.9,-2.9 -1.1,-1.2 -1.8,-2.7 -2.4,-4.4 -0.5,-1.7 -0.8,-3.6 -0.9,-5.6 0,-2 0.3,-3.8 0.9,-5.5 0.6,-1.7 1.5,-3.1 2.6,-4.3 1.1,-1.2 2.4,-2.2 3.9,-2.9 1.5,-0.7 3.2,-1 5,-1 2.4,0 4.3,0.5 5.8,1.5 1.5,1 2.8,2.2 3.7,3.7 0.9,1.5 1.6,3.1 1.9,4.9 0.4,1.8 0.5,3.5 0.4,5.1 l -19.5,0 c 0,1.2 0.1,2.3 0.4,3.3 0.3,1 0.8,2 1.5,2.8 0.7,0.8 1.5,1.4 2.6,1.9 1.1,0.5 2.3,0.7 3.7,0.7 1.8,0 3.3,-0.4 4.5,-1.3 1.2,-0.9 1.9,-2.1 2.3,-3.9 l 4.3,0 c -0.5,2.9 -1.8,5.2 -3.8,6.7 z m -1,-17 c -0.4,-0.9 -0.9,-1.7 -1.6,-2.4 -0.7,-0.7 -1.4,-1.2 -2.3,-1.6 -0.9,-0.4 -1.9,-0.6 -3,-0.6 -1.1,0 -2.1,0.2 -3,0.6 -0.9,0.4 -1.7,0.9 -2.3,1.6 -0.6,0.7 -1.2,1.5 -1.5,2.4 -0.4,0.9 -0.6,1.9 -0.7,2.9 l 15.2,0 c -0.2,-1 -0.5,-2 -0.8,-2.9 z" /><path
       style="fill:#000000"
       inkscape:connector-curvature="0"
       id="path35"
       d="m 386.4,88.5 0,4.2 0.1,0 c 1.8,-3.2 4.7,-4.8 8.6,-4.8 1.7,0 3.2,0.2 4.3,0.7 1.2,0.5 2.1,1.1 2.8,2 0.7,0.9 1.2,1.9 1.5,3 0.3,1.2 0.4,2.5 0.4,3.9 l 0,17.4 -4.3,0 0,-17.9 c 0,-1.6 -0.5,-2.9 -1.4,-3.9 -1,-1 -2.3,-1.4 -3.9,-1.4 -1.3,0 -2.5,0.2 -3.4,0.6 -1,0.4 -1.8,1 -2.4,1.7 -0.6,0.7 -1.1,1.6 -1.5,2.6 -0.3,1 -0.5,2.1 -0.5,3.3 l 0,14.9 -4.3,0 0,-26.3 4,0 z" /><path
       style="fill:#000000"
       inkscape:connector-curvature="0"
       id="path37"
       d="m 426.5,92.3 -14.9,0 0,-3.8 20.5,0 0,3 -16.1,19.5 16.8,0 0,3.8 -22.3,0 0,-3.3 16,-19.2 z" /><path
       style="fill:#000000"
       inkscape:connector-curvature="0"
       id="path39"
       d="m 453,92.3 -14.9,0 0,-3.8 20.5,0 0,3 -16.1,19.5 16.8,0 0,3.8 -22.3,0 0,-3.3 16,-19.2 z" /><path
       style="fill:#000000"
       inkscape:connector-curvature="0"
       id="path41"
       d="m 484.5,113.2 c -2,1.5 -4.5,2.2 -7.5,2.2 -2.1,0 -3.9,-0.3 -5.5,-1 -1.5,-0.7 -2.8,-1.6 -3.9,-2.9 -1.1,-1.2 -1.8,-2.7 -2.4,-4.4 -0.5,-1.7 -0.8,-3.6 -0.9,-5.6 0,-2 0.3,-3.8 0.9,-5.5 0.6,-1.7 1.5,-3.1 2.6,-4.3 1.1,-1.2 2.4,-2.2 3.9,-2.9 1.5,-0.7 3.2,-1 5,-1 2.3,0 4.3,0.5 5.8,1.5 1.5,1 2.8,2.2 3.7,3.7 0.9,1.5 1.6,3.1 1.9,4.9 0.4,1.8 0.5,3.5 0.4,5.1 l -19.5,0 c 0,1.2 0.1,2.3 0.4,3.3 0.3,1 0.8,2 1.5,2.8 0.7,0.8 1.5,1.4 2.6,1.9 1.1,0.5 2.3,0.7 3.7,0.7 1.8,0 3.3,-0.4 4.5,-1.3 1.2,-0.9 1.9,-2.1 2.3,-3.9 l 4.3,0 c -0.6,2.9 -1.8,5.2 -3.8,6.7 z m -1.1,-17 c -0.4,-0.9 -0.9,-1.7 -1.6,-2.4 -0.7,-0.7 -1.5,-1.2 -2.4,-1.6 -0.9,-0.4 -1.9,-0.6 -3,-0.6 -1.1,0 -2.1,0.2 -3,0.6 -0.9,0.4 -1.7,0.9 -2.3,1.6 -0.6,0.7 -1.2,1.5 -1.5,2.4 -0.4,0.9 -0.6,1.9 -0.7,2.9 l 15.2,0 c 0,-1 -0.3,-2 -0.7,-2.9 z" /><path
       style="fill:#000000"
       inkscape:connector-curvature="0"
       id="path43"
       d="m 499.4,88.5 0,4.2 0.1,0 c 1.8,-3.2 4.7,-4.8 8.6,-4.8 1.7,0 3.2,0.2 4.3,0.7 1.2,0.5 2.1,1.1 2.8,2 0.7,0.9 1.2,1.9 1.5,3 0.3,1.2 0.4,2.5 0.4,3.9 l 0,17.4 -4.3,0 0,-17.9 c 0,-1.6 -0.5,-2.9 -1.4,-3.9 -1,-1 -2.3,-1.4 -3.9,-1.4 -1.3,0 -2.5,0.2 -3.4,0.6 -1,0.4 -1.8,1 -2.4,1.7 -0.6,0.7 -1.1,1.6 -1.5,2.6 -0.3,1 -0.5,2.1 -0.5,3.3 l 0,14.9 -4.3,0 0,-26.3 4,0 z" /><path
       style="fill:#000000"
       inkscape:connector-curvature="0"
       id="path45"
       d="m 537,88.5 0,3.8 -5.3,0 0,16.4 c 0,0.5 0,0.9 0.1,1.2 0.1,0.3 0.2,0.5 0.5,0.7 0.2,0.2 0.6,0.3 1,0.3 0.4,0.1 1,0.1 1.7,0.1 l 2,0 0,3.8 -3.3,0 c -1.1,0 -2.1,-0.1 -2.9,-0.2 -0.8,-0.2 -1.4,-0.4 -1.9,-0.8 -0.5,-0.4 -0.9,-1 -1.1,-1.7 -0.2,-0.7 -0.4,-1.7 -0.4,-3 l 0,-16.8 -4.5,0 0,-3.8 4.5,0 0,-7.9 4.3,0 0,7.9 5.3,0 z" /><path
       style="fill:#000000"
       inkscape:connector-curvature="0"
       id="path47"
       d="m 547.8,88.5 0,5.5 0.1,0 c 1.1,-2.1 2.3,-3.7 3.9,-4.7 1.5,-1 3.5,-1.5 5.8,-1.4 l 0,4.6 c -1.7,0 -3.2,0.2 -4.4,0.7 -1.2,0.5 -2.2,1.2 -3,2.1 -0.8,0.9 -1.3,2 -1.6,3.3 -0.3,1.3 -0.5,2.8 -0.5,4.5 l 0,11.7 -4.3,0 0,-26.3 4,0 z" /><path
       style="fill:#000000"
       inkscape:connector-curvature="0"
       id="path49"
       d="m 580.6,114.8 0,-4.2 -0.1,0 c -0.9,1.6 -2.1,2.8 -3.5,3.6 -1.4,0.8 -3.1,1.2 -5.1,1.2 -1.7,0 -3.2,-0.2 -4.3,-0.7 -1.2,-0.5 -2.1,-1.1 -2.8,-2 -0.7,-0.8 -1.2,-1.9 -1.5,-3 -0.3,-1.2 -0.4,-2.5 -0.4,-3.9 l 0,-17.3 4.3,0 0,17.9 c 0,1.6 0.5,2.9 1.4,3.9 1,1 2.3,1.4 3.9,1.4 1.3,0 2.5,-0.2 3.4,-0.6 1,-0.4 1.8,-1 2.4,-1.7 0.6,-0.7 1.1,-1.6 1.5,-2.6 0.3,-1 0.5,-2.1 0.5,-3.3 l 0,-15 4.3,0 0,26.4 -4,0 z" /><path
       style="fill:#000000"
       inkscape:connector-curvature="0"
       id="path51"
       d="m 597.4,88.5 0,3.9 0.1,0 c 2,-3 4.8,-4.5 8.5,-4.5 1.6,0 3.1,0.3 4.4,1 1.3,0.7 2.3,1.8 2.8,3.5 0.9,-1.4 2.1,-2.5 3.5,-3.3 1.4,-0.8 3,-1.2 4.8,-1.2 1.3,0 2.5,0.1 3.6,0.4 1.1,0.3 2,0.7 2.8,1.4 0.8,0.6 1.4,1.4 1.8,2.4 0.4,1 0.6,2.1 0.6,3.5 l 0,19.4 -4.3,0 0,-17.5 c 0,-0.8 -0.1,-1.6 -0.2,-2.3 -0.1,-0.7 -0.4,-1.3 -0.8,-1.9 -0.4,-0.5 -0.9,-0.9 -1.6,-1.3 -0.7,-0.3 -1.5,-0.5 -2.6,-0.5 -2.1,0 -3.8,0.6 -5.1,1.8 -1.2,1.2 -1.8,2.9 -1.8,4.9 l 0,16.4 -4.3,0 0,-17.1 c 0,-0.9 -0.1,-1.6 -0.2,-2.3 -0.2,-0.7 -0.4,-1.3 -0.8,-1.9 -0.4,-0.5 -0.9,-0.9 -1.5,-1.2 -0.6,-0.3 -1.4,-0.4 -2.4,-0.4 -1.3,0 -2.3,0.3 -3.2,0.8 -0.9,0.5 -1.6,1.1 -2.2,1.8 -0.6,0.7 -1,1.5 -1.2,2.2 -0.3,0.8 -0.4,1.4 -0.4,1.9 l 0,16.4 -4.3,0 0,-26.3 4,0 z" /></g></svg>