<?xml version="1.0" encoding="UTF-8" standalone="no"?>
<!-- Generator: Adobe Illustrator 18.1.0, SVG Export Plug-In . SVG Version: 6.00 Build 0)  -->

<svg
   xmlns:dc="http://purl.org/dc/elements/1.1/"
   xmlns:cc="http://creativecommons.org/ns#"
   xmlns:rdf="http://www.w3.org/1999/02/22-rdf-syntax-ns#"
   xmlns:svg="http://www.w3.org/2000/svg"
   xmlns="http://www.w3.org/2000/svg"
   xmlns:sodipodi="http://sodipodi.sourceforge.net/DTD/sodipodi-0.dtd"
   xmlns:inkscape="http://www.inkscape.org/namespaces/inkscape"
   version="1.1"
   id="Layer_1"
   x="0px"
   y="0px"
   viewBox="0 0 609.5 108.1"
   enable-background="new 0 0 650.7 142"
   xml:space="preserve"
   inkscape:version="0.48.5 r10040"
   width="100%"
   height="100%"
   sodipodi:docname="logo.svg"><metadata
   id="metadata57"><rdf:RDF><cc:Work
       rdf:about=""><dc:format>image/svg+xml</dc:format><dc:type
         rdf:resource="http://purl.org/dc/dcmitype/StillImage" /></cc:Work></rdf:RDF></metadata><defs
   id="defs55">
	
	
	
	
	
</defs><sodipodi:namedview
   pagecolor="#ffffff"
   bordercolor="#666666"
   borderopacity="1"
   objecttolerance="10"
   gridtolerance="10"
   guidetolerance="10"
   inkscape:pageopacity="0"
   inkscape:pageshadow="2"
   inkscape:window-width="1920"
   inkscape:window-height="1017"
   id="namedview53"
   showgrid="false"
   fit-margin-top="0"
   fit-margin-left="0"
   fit-margin-right="0"
   fit-margin-bottom="0"
   inkscape:zoom="0.53941909"
   inkscape:cx="-43.973085"
   inkscape:cy="53.7"
   inkscape:window-x="-8"
   inkscape:window-y="-8"
   inkscape:window-maximized="1"
   inkscape:current-layer="Layer_1" />
<g
   id="g3798"><polygon
     transform="translate(-20.800006,-16.6)"
     points="53.5,82.1 53.5,16.7 20.8,16.7 20.8,114.8 119,114.8 119,82.1 "
     id="polygon5"
     style="fill:#ffffff;fill-opacity:1" /><polygon
     transform="translate(-20.800006,-16.6)"
     points="86.3,49.4 86.3,16.7 53.5,16.7 53.5,82.1 119,82.1 119,49.4 "
     id="polygon7"
     style="fill:none" /><rect
     x="65.5"
     y="0.10000076"
     width="32.700001"
     height="32.700001"
     id="rect9"
     style="fill:#ffffff;fill-opacity:1" /><g
     style="fill:#ffffff"
     transform="translate(-20.800006,-16.6)"
     id="g11">
		<polygon
   points="253.1,16.7 238.5,16.7 221.9,34.6 221.9,16.7 211.3,16.7 211.3,65.9 221.9,65.9 221.9,48 226.5,43.4 241.1,65.9 254.8,65.9 234,35.9 "
   id="polygon13"
   style="fill:#ffffff" />
		<path
   d="m 188.4,46.4 c 4.9,-2.8 8.5,-7.9 8.5,-13.8 0,-8.8 -7.9,-16 -16.7,-16 h -9.8 -10.5 v 49.2 h 10.5 V 48.7 l 6.6,0 11.5,17.2 h 13.9 l -14,-19.5 z m -2,-13.4 c -0.2,3.5 -2.6,5.9 -6.3,6.4 l -9.8,0 v -13 l 9.8,0 c 3.6,0.1 6.6,3 6.3,6.6 z"
   id="path15"
   inkscape:connector-curvature="0"
   style="fill:#ffffff" />
		<polygon
   points="305.4,65.9 318.7,16.7 307.6,16.7 300.1,50.8 292.9,16.7 282.4,16.7 275.5,50.8 267.7,16.7 256.5,16.7 269.8,65.9 280.5,65.9 287.6,33.3 294.8,65.9 "
   id="polygon17"
   style="fill:#ffffff" />
	</g><g
     style="fill:#ffffff"
     transform="translate(-20.800006,-16.6)"
     id="g19">
		<path
   d="m 165.4,78.4 v 18.2 l 18.5,-18.2 h 6.3 l -15.4,14.7 16,21.8 h -6.1 l -13.2,-18.4 -6.1,5.7 V 115 h -4.8 V 78.4 h 4.8 z"
   id="path21"
   inkscape:connector-curvature="0"
   style="fill:#ffffff" />
		<path
   d="m 195.4,96.2 c 0.5,-1.7 1.4,-3.1 2.5,-4.4 1.1,-1.2 2.4,-2.2 4,-2.9 1.6,-0.7 3.4,-1.1 5.5,-1.1 2.1,0 4,0.4 5.5,1.1 1.6,0.7 2.9,1.7 4,2.9 1.1,1.2 1.9,2.7 2.5,4.4 0.5,1.7 0.8,3.5 0.8,5.4 0,1.9 -0.3,3.7 -0.8,5.4 -0.5,1.7 -1.4,3.1 -2.5,4.4 -1.1,1.2 -2.4,2.2 -4,2.9 -1.6,0.7 -3.4,1 -5.5,1 -2.1,0 -3.9,-0.4 -5.5,-1 -1.6,-0.7 -2.9,-1.7 -4,-2.9 -1.1,-1.2 -1.9,-2.7 -2.5,-4.4 -0.5,-1.7 -0.8,-3.5 -0.8,-5.4 -0.1,-1.9 0.2,-3.7 0.8,-5.4 z m 4.4,9.7 c 0.4,1.2 1,2.3 1.8,3.1 0.7,0.8 1.6,1.5 2.6,1.9 1,0.4 2.1,0.7 3.2,0.7 1.1,0 2.2,-0.2 3.2,-0.7 1,-0.4 1.9,-1.1 2.6,-1.9 0.8,-0.8 1.3,-1.9 1.8,-3.1 0.4,-1.2 0.6,-2.7 0.6,-4.3 0,-1.6 -0.2,-3 -0.6,-4.3 -0.4,-1.2 -1,-2.3 -1.8,-3.1 -0.8,-0.9 -1.6,-1.5 -2.6,-1.9 -1,-0.4 -2.1,-0.7 -3.2,-0.7 -1.1,0 -2.2,0.2 -3.2,0.7 -1,0.4 -1.9,1.1 -2.6,1.9 -0.8,0.9 -1.3,1.9 -1.8,3.1 -0.4,1.2 -0.6,2.7 -0.6,4.3 -0.1,1.7 0.2,3.1 0.6,4.3 z"
   id="path23"
   inkscape:connector-curvature="0"
   style="fill:#ffffff" />
		<path
   d="m 231.4,88.5 v 3.9 h 0.1 c 2,-3 4.8,-4.5 8.5,-4.5 1.6,0 3.1,0.3 4.4,1 1.3,0.7 2.3,1.8 2.8,3.5 0.9,-1.4 2.1,-2.5 3.5,-3.3 1.4,-0.8 3,-1.2 4.8,-1.2 1.3,0 2.5,0.1 3.6,0.4 1.1,0.3 2,0.7 2.8,1.4 0.8,0.6 1.4,1.4 1.8,2.4 0.4,1 0.6,2.1 0.6,3.5 V 115 H 260 V 97.5 c 0,-0.8 -0.1,-1.6 -0.2,-2.3 -0.1,-0.7 -0.4,-1.3 -0.8,-1.9 -0.4,-0.5 -0.9,-0.9 -1.6,-1.3 -0.7,-0.3 -1.5,-0.5 -2.6,-0.5 -2.1,0 -3.8,0.6 -5.1,1.8 -1.2,1.2 -1.8,2.9 -1.8,4.9 v 16.4 h -4.3 V 97.5 c 0,-0.9 -0.1,-1.6 -0.2,-2.3 -0.2,-0.7 -0.4,-1.3 -0.8,-1.9 -0.4,-0.5 -0.9,-0.9 -1.5,-1.2 -0.6,-0.3 -1.4,-0.4 -2.4,-0.4 -1.3,0 -2.3,0.3 -3.2,0.8 -0.9,0.5 -1.6,1.1 -2.2,1.8 -0.6,0.7 -1,1.5 -1.2,2.2 -0.3,0.8 -0.4,1.4 -0.4,1.9 v 16.4 h -4.3 V 88.5 h 4 z"
   id="path25"
   inkscape:connector-curvature="0"
   style="fill:#ffffff" />
		<path
   d="M 277.4,88.5 V 92 h 0.1 c 0.7,-1.5 1.8,-2.5 3.4,-3.2 1.5,-0.7 3.2,-1 5.1,-1 2,0 3.8,0.4 5.3,1.1 1.5,0.7 2.8,1.8 3.8,3 1,1.3 1.8,2.7 2.3,4.4 0.5,1.7 0.8,3.4 0.8,5.3 0,1.9 -0.2,3.6 -0.7,5.3 -0.5,1.7 -1.2,3.1 -2.2,4.4 -1,1.2 -2.3,2.2 -3.8,2.9 -1.5,0.7 -3.3,1.1 -5.3,1.1 -0.6,0 -1.4,-0.1 -2.2,-0.2 -0.8,-0.1 -1.6,-0.4 -2.4,-0.7 -0.8,-0.3 -1.5,-0.7 -2.2,-1.3 -0.7,-0.5 -1.3,-1.2 -1.8,-2 h -0.1 v 13.6 h -4.3 V 88.5 h 4.2 z m 15.6,9.3 c -0.3,-1.2 -0.8,-2.2 -1.5,-3.1 -0.7,-0.9 -1.5,-1.6 -2.6,-2.2 -1,-0.5 -2.3,-0.8 -3.7,-0.8 -1.5,0 -2.7,0.3 -3.7,0.9 -1,0.6 -1.9,1.3 -2.5,2.3 -0.6,0.9 -1.1,2 -1.4,3.2 -0.3,1.2 -0.4,2.4 -0.4,3.6 0,1.3 0.2,2.5 0.5,3.8 0.3,1.2 0.8,2.3 1.5,3.2 0.7,0.9 1.5,1.7 2.6,2.2 1.1,0.6 2.3,0.8 3.8,0.8 1.5,0 2.8,-0.3 3.8,-0.9 1,-0.6 1.8,-1.3 2.4,-2.3 0.6,-1 1.1,-2 1.3,-3.3 0.3,-1.2 0.4,-2.5 0.4,-3.8 0,-1.2 -0.2,-2.4 -0.5,-3.6 z"
   id="path27"
   inkscape:connector-curvature="0"
   style="fill:#ffffff" />
		<path
   d="m 323.9,113.2 c -2,1.5 -4.5,2.2 -7.5,2.2 -2.1,0 -3.9,-0.3 -5.5,-1 -1.5,-0.7 -2.8,-1.6 -3.9,-2.9 -1.1,-1.2 -1.8,-2.7 -2.4,-4.4 -0.5,-1.7 -0.8,-3.6 -0.9,-5.6 0,-2 0.3,-3.8 0.9,-5.5 0.6,-1.7 1.5,-3.1 2.6,-4.3 1.1,-1.2 2.4,-2.2 3.9,-2.9 1.5,-0.7 3.2,-1 5,-1 2.3,0 4.3,0.5 5.8,1.5 1.5,1 2.8,2.2 3.7,3.7 0.9,1.5 1.6,3.1 1.9,4.9 0.4,1.8 0.5,3.5 0.4,5.1 h -19.8 c 0,1.2 0.1,2.3 0.4,3.3 0.3,1 0.8,2 1.5,2.8 0.7,0.8 1.5,1.4 2.6,1.9 1.1,0.5 2.3,0.7 3.7,0.7 1.8,0 3.3,-0.4 4.5,-1.3 1.2,-0.9 1.9,-2.1 2.3,-3.9 h 4.3 c -0.2,2.9 -1.5,5.2 -3.5,6.7 z m -1,-17 c -0.4,-0.9 -0.9,-1.7 -1.6,-2.4 -0.7,-0.7 -1.5,-1.2 -2.4,-1.6 -0.9,-0.4 -1.9,-0.6 -3,-0.6 -1.1,0 -2.1,0.2 -3,0.6 -0.9,0.4 -1.7,0.9 -2.3,1.6 -0.6,0.7 -1.2,1.5 -1.5,2.4 -0.4,0.9 -0.6,1.9 -0.7,2.9 h 15.2 c -0.1,-1 -0.3,-2 -0.7,-2.9 z"
   id="path29"
   inkscape:connector-curvature="0"
   style="fill:#ffffff" />
		<path
   d="m 346,88.5 v 3.8 h -5.3 v 16.4 c 0,0.5 0,0.9 0.1,1.2 0.1,0.3 0.2,0.5 0.5,0.7 0.2,0.2 0.6,0.3 1,0.3 0.4,0.1 1,0.1 1.7,0.1 h 2 v 3.8 h -3.3 c -1.1,0 -2.1,-0.1 -2.9,-0.2 -0.8,-0.2 -1.5,-0.4 -1.9,-0.8 -0.5,-0.4 -0.9,-1 -1.1,-1.7 -0.2,-0.7 -0.4,-1.7 -0.4,-3 V 92.3 h -4.5 v -3.8 h 4.5 v -7.9 h 4.3 v 7.9 h 5.3 z"
   id="path31"
   inkscape:connector-curvature="0"
   style="fill:#ffffff" />
		<path
   d="m 371.5,113.2 c -2,1.5 -4.5,2.2 -7.5,2.2 -2.1,0 -3.9,-0.3 -5.5,-1 -1.6,-0.7 -2.9,-1.6 -3.9,-2.9 -1.1,-1.2 -1.8,-2.7 -2.4,-4.4 -0.5,-1.7 -0.8,-3.6 -0.9,-5.6 0,-2 0.3,-3.8 0.9,-5.5 0.6,-1.7 1.5,-3.1 2.6,-4.3 1.1,-1.2 2.4,-2.2 3.9,-2.9 1.5,-0.7 3.2,-1 5,-1 2.4,0 4.3,0.5 5.8,1.5 1.5,1 2.8,2.2 3.7,3.7 0.9,1.5 1.6,3.1 1.9,4.9 0.4,1.8 0.5,3.5 0.4,5.1 H 356 c 0,1.2 0.1,2.3 0.4,3.3 0.3,1 0.8,2 1.5,2.8 0.7,0.8 1.5,1.4 2.6,1.9 1.1,0.5 2.3,0.7 3.7,0.7 1.8,0 3.3,-0.4 4.5,-1.3 1.2,-0.9 1.9,-2.1 2.3,-3.9 h 4.3 c -0.5,2.9 -1.8,5.2 -3.8,6.7 z m -1,-17 c -0.4,-0.9 -0.9,-1.7 -1.6,-2.4 -0.7,-0.7 -1.4,-1.2 -2.3,-1.6 -0.9,-0.4 -1.9,-0.6 -3,-0.6 -1.1,0 -2.1,0.2 -3,0.6 -0.9,0.4 -1.7,0.9 -2.3,1.6 -0.6,0.7 -1.2,1.5 -1.5,2.4 -0.4,0.9 -0.6,1.9 -0.7,2.9 h 15.2 c -0.2,-1 -0.5,-2 -0.8,-2.9 z"
   id="path33"
   inkscape:connector-curvature="0"
   style="fill:#ffffff" />
		<path
   d="m 386.4,88.5 v 4.2 h 0.1 c 1.8,-3.2 4.7,-4.8 8.6,-4.8 1.7,0 3.2,0.2 4.3,0.7 1.2,0.5 2.1,1.1 2.8,2 0.7,0.9 1.2,1.9 1.5,3 0.3,1.2 0.4,2.5 0.4,3.9 v 17.4 h -4.3 V 97 c 0,-1.6 -0.5,-2.9 -1.4,-3.9 -1,-1 -2.3,-1.4 -3.9,-1.4 -1.3,0 -2.5,0.2 -3.4,0.6 -1,0.4 -1.8,1 -2.4,1.7 -0.6,0.7 -1.1,1.6 -1.5,2.6 -0.3,1 -0.5,2.1 -0.5,3.3 v 14.9 h -4.3 V 88.5 h 4 z"
   id="path35"
   inkscape:connector-curvature="0"
   style="fill:#ffffff" />
		<path
   d="m 426.5,92.3 h -14.9 v -3.8 h 20.5 v 3 L 416,111 h 16.8 v 3.8 h -22.3 v -3.3 l 16,-19.2 z"
   id="path37"
   inkscape:connector-curvature="0"
   style="fill:#ffffff" />
		<path
   d="m 453,92.3 h -14.9 v -3.8 h 20.5 v 3 L 442.5,111 h 16.8 v 3.8 H 437 v -3.3 l 16,-19.2 z"
   id="path39"
   inkscape:connector-curvature="0"
   style="fill:#ffffff" />
		<path
   d="m 484.5,113.2 c -2,1.5 -4.5,2.2 -7.5,2.2 -2.1,0 -3.9,-0.3 -5.5,-1 -1.5,-0.7 -2.8,-1.6 -3.9,-2.9 -1.1,-1.2 -1.8,-2.7 -2.4,-4.4 -0.5,-1.7 -0.8,-3.6 -0.9,-5.6 0,-2 0.3,-3.8 0.9,-5.5 0.6,-1.7 1.5,-3.1 2.6,-4.3 1.1,-1.2 2.4,-2.2 3.9,-2.9 1.5,-0.7 3.2,-1 5,-1 2.3,0 4.3,0.5 5.8,1.5 1.5,1 2.8,2.2 3.7,3.7 0.9,1.5 1.6,3.1 1.9,4.9 0.4,1.8 0.5,3.5 0.4,5.1 H 469 c 0,1.2 0.1,2.3 0.4,3.3 0.3,1 0.8,2 1.5,2.8 0.7,0.8 1.5,1.4 2.6,1.9 1.1,0.5 2.3,0.7 3.7,0.7 1.8,0 3.3,-0.4 4.5,-1.3 1.2,-0.9 1.9,-2.1 2.3,-3.9 h 4.3 c -0.6,2.9 -1.8,5.2 -3.8,6.7 z m -1.1,-17 c -0.4,-0.9 -0.9,-1.7 -1.6,-2.4 -0.7,-0.7 -1.5,-1.2 -2.4,-1.6 -0.9,-0.4 -1.9,-0.6 -3,-0.6 -1.1,0 -2.1,0.2 -3,0.6 -0.9,0.4 -1.7,0.9 -2.3,1.6 -0.6,0.7 -1.2,1.5 -1.5,2.4 -0.4,0.9 -0.6,1.9 -0.7,2.9 h 15.2 c 0,-1 -0.3,-2 -0.7,-2.9 z"
   id="path41"
   inkscape:connector-curvature="0"
   style="fill:#ffffff" />
		<path
   d="m 499.4,88.5 v 4.2 h 0.1 c 1.8,-3.2 4.7,-4.8 8.6,-4.8 1.7,0 3.2,0.2 4.3,0.7 1.2,0.5 2.1,1.1 2.8,2 0.7,0.9 1.2,1.9 1.5,3 0.3,1.2 0.4,2.5 0.4,3.9 v 17.4 h -4.3 V 97 c 0,-1.6 -0.5,-2.9 -1.4,-3.9 -1,-1 -2.3,-1.4 -3.9,-1.4 -1.3,0 -2.5,0.2 -3.4,0.6 -1,0.4 -1.8,1 -2.4,1.7 -0.6,0.7 -1.1,1.6 -1.5,2.6 -0.3,1 -0.5,2.1 -0.5,3.3 v 14.9 h -4.3 V 88.5 h 4 z"
   id="path43"
   inkscape:connector-curvature="0"
   style="fill:#ffffff" />
		<path
   d="m 537,88.5 v 3.8 h -5.3 v 16.4 c 0,0.5 0,0.9 0.1,1.2 0.1,0.3 0.2,0.5 0.5,0.7 0.2,0.2 0.6,0.3 1,0.3 0.4,0.1 1,0.1 1.7,0.1 h 2 v 3.8 h -3.3 c -1.1,0 -2.1,-0.1 -2.9,-0.2 -0.8,-0.2 -1.4,-0.4 -1.9,-0.8 -0.5,-0.4 -0.9,-1 -1.1,-1.7 -0.2,-0.7 -0.4,-1.7 -0.4,-3 V 92.3 h -4.5 v -3.8 h 4.5 v -7.9 h 4.3 v 7.9 h 5.3 z"
   id="path45"
   inkscape:connector-curvature="0"
   style="fill:#ffffff" />
		<path
   d="M 547.8,88.5 V 94 h 0.1 c 1.1,-2.1 2.3,-3.7 3.9,-4.7 1.5,-1 3.5,-1.5 5.8,-1.4 v 4.6 c -1.7,0 -3.2,0.2 -4.4,0.7 -1.2,0.5 -2.2,1.2 -3,2.1 -0.8,0.9 -1.3,2 -1.6,3.3 -0.3,1.3 -0.5,2.8 -0.5,4.5 v 11.7 h -4.3 V 88.5 h 4 z"
   id="path47"
   inkscape:connector-curvature="0"
   style="fill:#ffffff" />
		<path
   d="m 580.6,114.8 v -4.2 h -0.1 c -0.9,1.6 -2.1,2.8 -3.5,3.6 -1.4,0.8 -3.1,1.2 -5.1,1.2 -1.7,0 -3.2,-0.2 -4.3,-0.7 -1.2,-0.5 -2.1,-1.1 -2.8,-2 -0.7,-0.8 -1.2,-1.9 -1.5,-3 -0.3,-1.2 -0.4,-2.5 -0.4,-3.9 V 88.5 h 4.3 v 17.9 c 0,1.6 0.5,2.9 1.4,3.9 1,1 2.3,1.4 3.9,1.4 1.3,0 2.5,-0.2 3.4,-0.6 1,-0.4 1.8,-1 2.4,-1.7 0.6,-0.7 1.1,-1.6 1.5,-2.6 0.3,-1 0.5,-2.1 0.5,-3.3 v -15 h 4.3 v 26.4 h -4 z"
   id="path49"
   inkscape:connector-curvature="0"
   style="fill:#ffffff" />
		<path
   d="m 597.4,88.5 v 3.9 h 0.1 c 2,-3 4.8,-4.5 8.5,-4.5 1.6,0 3.1,0.3 4.4,1 1.3,0.7 2.3,1.8 2.8,3.5 0.9,-1.4 2.1,-2.5 3.5,-3.3 1.4,-0.8 3,-1.2 4.8,-1.2 1.3,0 2.5,0.1 3.6,0.4 1.1,0.3 2,0.7 2.8,1.4 0.8,0.6 1.4,1.4 1.8,2.4 0.4,1 0.6,2.1 0.6,3.5 V 115 H 626 V 97.5 c 0,-0.8 -0.1,-1.6 -0.2,-2.3 -0.1,-0.7 -0.4,-1.3 -0.8,-1.9 -0.4,-0.5 -0.9,-0.9 -1.6,-1.3 -0.7,-0.3 -1.5,-0.5 -2.6,-0.5 -2.1,0 -3.8,0.6 -5.1,1.8 -1.2,1.2 -1.8,2.9 -1.8,4.9 v 16.4 h -4.3 V 97.5 c 0,-0.9 -0.1,-1.6 -0.2,-2.3 -0.2,-0.7 -0.4,-1.3 -0.8,-1.9 -0.4,-0.5 -0.9,-0.9 -1.5,-1.2 -0.6,-0.3 -1.4,-0.4 -2.4,-0.4 -1.3,0 -2.3,0.3 -3.2,0.8 -0.9,0.5 -1.6,1.1 -2.2,1.8 -0.6,0.7 -1,1.5 -1.2,2.2 -0.3,0.8 -0.4,1.4 -0.4,1.9 v 16.4 h -4.3 V 88.5 h 4 z"
   id="path51"
   inkscape:connector-curvature="0"
   style="fill:#ffffff" />
	</g></g>
</svg>